<?xml version="1.0" encoding="utf-8"?>
<!-- Generator: Adobe Illustrator 24.0.1, SVG Export Plug-In . SVG Version: 6.00 Build 0)  -->
<svg version="1.1" id="Capa_1" xmlns="http://www.w3.org/2000/svg" xmlns:xlink="http://www.w3.org/1999/xlink" x="0px" y="0px"
	 viewBox="0 0 820 143" width="820" height="143" style="enable-background:new 0 0 820 143;" xml:space="preserve">
<style type="text/css">
	.st0{fill:#1E59B2;}
	.st1{clip-path:url(#SVGID_3_);}
	.st2{clip-path:url(#SVGID_4_);}
	.st3{fill:#0061AD;}
	.st4{clip-path:url(#SVGID_7_);}
	.st5{clip-path:url(#SVGID_8_);}
	.st6{fill:#0069B3;}
	.st7{fill:#0372B9;}
	.st8{fill:#307BBF;}
	.st9{fill:#4984C5;}
	.st10{fill:#5E8ECA;}
	.st11{fill:#7199D0;}
	.st12{fill:#83A3D6;}
	.st13{fill:#94AEDB;}
	.st14{fill:#A5B9E1;}
	.st15{fill:#B5C5E6;}
	.st16{fill:#C4D0EC;}
	.st17{fill:#D3DBF1;}
	.st18{fill:#E2E7F6;}
	.st19{fill:#F1F3FB;}
	.st20{fill:#FFFFFF;}
	.st21{fill-rule:evenodd;clip-rule:evenodd;fill:#1E59B2;}
	.st22{fill:none;stroke:#1E59B2;stroke-width:0.7917;stroke-miterlimit:10;}
</style>
<g>
	<g>
		<path class="st0" d="M359.4,71.7c0-13.1,10.7-23.7,23.9-23.7c13.2,0,23.9,10.6,23.9,23.7c0,13.1-10.7,23.7-23.9,23.7
			C370.1,95.3,359.4,84.7,359.4,71.7L359.4,71.7z"/>
	</g>
	<g>
		<defs>
			<path id="SVGID_1_" d="M363,46.9c13.3-11.2,29.4-14.1,35.8-6.4c6.4,7.7,0.8,23-12.5,34.3c-13.3,11.2-29.4,14.1-35.8,6.5
				C344,73.5,349.7,58.1,363,46.9L363,46.9z"/>
		</defs>
		<defs>
			<path id="SVGID_2_" d="M359.4,71.7c0-13.1,10.7-23.7,23.9-23.7c13.2,0,23.9,10.6,23.9,23.7c0,13.1-10.7,23.7-23.9,23.7
				C370.1,95.3,359.4,84.7,359.4,71.7L359.4,71.7z"/>
		</defs>
		<clipPath id="SVGID_3_">
			<use xlink:href="#SVGID_1_"  style="overflow:visible;"/>
		</clipPath>
		<clipPath id="SVGID_4_" class="st1">
			<use xlink:href="#SVGID_2_"  style="overflow:visible;"/>
		</clipPath>
		<g class="st2">
			<path class="st3" d="M408.1,60.8c0-18.3-15-33.1-33.4-33.1c-18.4,0-33.4,14.8-33.4,33.1c0,18.3,15,33.1,33.4,33.1
				C393.1,93.9,408.1,79,408.1,60.8 M391.6,60.8L391.6,60.8c0,9.3-7.6,16.9-17,16.9c-9.4,0-17-7.5-17-16.9c0-9.3,7.6-16.9,17-16.9
				C384,43.9,391.6,51.5,391.6,60.8"/>
		</g>
	</g>
	<g>
		<defs>
			<path id="SVGID_5_" d="M363,46.9c13.3-11.2,29.4-14.1,35.8-6.4c6.4,7.7,0.8,23-12.5,34.3c-13.3,11.2-29.4,14.1-35.8,6.5
				C344,73.5,349.7,58.1,363,46.9L363,46.9z"/>
		</defs>
		<defs>
			<path id="SVGID_6_" d="M359.4,71.7c0-13.1,10.7-23.7,23.9-23.7c13.2,0,23.9,10.6,23.9,23.7c0,13.1-10.7,23.7-23.9,23.7
				C370.1,95.3,359.4,84.7,359.4,71.7L359.4,71.7z"/>
		</defs>
		<clipPath id="SVGID_7_">
			<use xlink:href="#SVGID_5_"  style="overflow:visible;"/>
		</clipPath>
		<clipPath id="SVGID_8_" class="st4">
			<use xlink:href="#SVGID_6_"  style="overflow:visible;"/>
		</clipPath>
		<g class="st5">
			<path class="st3" d="M393.5,60.9c0-10.4-8.5-18.8-19-18.8c-10.5,0-19,8.4-19,18.8s8.5,18.8,19,18.8
				C385,79.7,393.5,71.3,393.5,60.9 M392.4,60.8L392.4,60.8c0,9.7-8,17.6-17.8,17.6c-9.8,0-17.8-7.9-17.8-17.6
				c0-9.7,8-17.6,17.8-17.6C384.4,43.2,392.4,51.1,392.4,60.8"/>
		</g>
		<g class="st5">
			<path class="st6" d="M392.5,60.8c0-9.7-8-17.6-17.8-17.6c-9.8,0-17.8,7.9-17.8,17.6c0,9.7,8,17.6,17.8,17.6
				C384.5,78.4,392.5,70.5,392.5,60.8 M391.2,60.8L391.2,60.8c0,9-7.4,16.4-16.5,16.4c-9.1,0-16.5-7.3-16.5-16.4
				c0-9,7.4-16.4,16.5-16.4C383.8,44.4,391.2,51.7,391.2,60.8"/>
		</g>
		<g class="st5">
			<path class="st7" d="M391.2,60.8c0-9-7.4-16.4-16.5-16.4c-9.1,0-16.5,7.3-16.5,16.4c0,9,7.4,16.4,16.5,16.4
				C383.8,77.2,391.2,69.8,391.2,60.8 M389.9,60.8L389.9,60.8c0,8.4-6.9,15.2-15.3,15.2c-8.5,0-15.3-6.8-15.3-15.2
				c0-8.4,6.9-15.2,15.3-15.2C383.1,45.6,389.9,52.4,389.9,60.8"/>
		</g>
		<g class="st5">
			<path class="st8" d="M389.9,60.8c0-8.4-6.9-15.2-15.3-15.2c-8.5,0-15.3,6.8-15.3,15.2c0,8.4,6.9,15.2,15.3,15.2
				C383,76,389.9,69.2,389.9,60.8 M388.7,60.8L388.7,60.8c0,7.7-6.3,14-14.1,14c-7.8,0-14.1-6.3-14.1-14c0-7.7,6.3-14,14.1-14
				C382.4,46.8,388.7,53.1,388.7,60.8"/>
		</g>
		<g class="st5">
			<path class="st9" d="M388.8,60.8c0-7.7-6.3-14-14.1-14c-7.8,0-14.1,6.3-14.1,14c0,7.7,6.3,14,14.1,14
				C382.5,74.7,388.8,68.5,388.8,60.8 M387.5,60.8L387.5,60.8c0,7-5.8,12.7-12.9,12.7c-7.1,0-12.9-5.7-12.9-12.7
				c0-7,5.8-12.7,12.9-12.7C381.7,48,387.5,53.7,387.5,60.8"/>
		</g>
		<g class="st5">
			<path class="st10" d="M387.4,60.8c0-7-5.8-12.7-12.9-12.7c-7.1,0-12.9,5.7-12.9,12.7c0,7,5.8,12.7,12.9,12.7
				C381.6,73.5,387.4,67.8,387.4,60.8 M386.3,60.8L386.3,60.8c0,6.4-5.2,11.5-11.6,11.5c-6.4,0-11.6-5.2-11.6-11.5
				c0-6.4,5.2-11.5,11.6-11.5C381.1,49.2,386.3,54.4,386.3,60.8"/>
		</g>
		<g class="st5">
			<path class="st11" d="M386.3,60.8c0-6.4-5.2-11.5-11.6-11.5c-6.4,0-11.6,5.2-11.6,11.5c0,6.4,5.2,11.5,11.6,11.5
				C381.1,72.3,386.3,67.1,386.3,60.8 M385,60.8L385,60.8c0,5.7-4.7,10.3-10.4,10.3c-5.8,0-10.4-4.6-10.4-10.3
				c0-5.7,4.7-10.3,10.4-10.3C380.4,50.5,385,55.1,385,60.8"/>
		</g>
		<g class="st5">
			<path class="st12" d="M385,60.8c0-5.7-4.7-10.3-10.4-10.3c-5.8,0-10.4,4.6-10.4,10.3s4.7,10.3,10.4,10.3
				C380.3,71.1,385,66.5,385,60.8 M383.8,60.8L383.8,60.8c0,5-4.1,9.1-9.2,9.1c-5.1,0-9.2-4.1-9.2-9.1c0-5,4.1-9.1,9.2-9.1
				C379.7,51.7,383.8,55.8,383.8,60.8"/>
		</g>
		<g class="st5">
			<path class="st13" d="M383.9,60.8c0-5-4.1-9.1-9.2-9.1c-5.1,0-9.2,4.1-9.2,9.1s4.1,9.1,9.2,9.1C379.8,69.9,383.9,65.8,383.9,60.8
				 M382.6,60.8L382.6,60.8c0,4.4-3.6,7.9-8,7.9c-4.4,0-8-3.5-8-7.9c0-4.4,3.6-7.9,8-7.9C379,52.9,382.6,56.4,382.6,60.8"/>
		</g>
		<g class="st5">
			<path class="st14" d="M382.6,60.8c0-4.4-3.6-7.9-8-7.9c-4.4,0-8,3.5-8,7.9c0,4.4,3.6,7.9,8,7.9C379.1,68.7,382.6,65.1,382.6,60.8
				 M381.4,60.8L381.4,60.8c0,3.7-3,6.7-6.7,6.7c-3.7,0-6.7-3-6.7-6.7c0-3.7,3-6.7,6.7-6.7C378.3,54.1,381.4,57.1,381.4,60.8"/>
		</g>
		<g class="st5">
			<path class="st15" d="M381.3,60.8c0-3.7-3-6.7-6.7-6.7c-3.7,0-6.7,3-6.7,6.7c0,3.7,3,6.7,6.7,6.7
				C378.3,67.5,381.3,64.5,381.3,60.8 M380.1,60.8L380.1,60.8c0,3-2.5,5.5-5.5,5.5c-3,0-5.5-2.4-5.5-5.5c0-3,2.5-5.5,5.5-5.5
				C377.7,55.3,380.1,57.8,380.1,60.8"/>
		</g>
		<g class="st5">
			<path class="st16" d="M380.2,60.8c0-3-2.5-5.5-5.5-5.5c-3,0-5.5,2.4-5.5,5.5c0,3,2.5,5.5,5.5,5.5
				C377.7,66.2,380.2,63.8,380.2,60.8 M378.9,60.8L378.9,60.8c0,2.3-1.9,4.3-4.3,4.3c-2.4,0-4.3-1.9-4.3-4.3c0-2.3,1.9-4.2,4.3-4.2
				C377,56.5,378.9,58.4,378.9,60.8"/>
		</g>
		<g class="st5">
			<path class="st17" d="M378.8,60.8c0-2.3-1.9-4.3-4.3-4.3c-2.4,0-4.3,1.9-4.3,4.3c0,2.3,1.9,4.2,4.3,4.2
				C376.9,65,378.8,63.1,378.8,60.8 M377.7,60.8L377.7,60.8c0,1.7-1.4,3-3.1,3c-1.7,0-3.1-1.4-3.1-3c0-1.7,1.4-3,3.1-3
				C376.3,57.7,377.7,59.1,377.7,60.8"/>
		</g>
		<g class="st5">
			<path class="st18" d="M377.7,60.8c0-1.7-1.4-3-3.1-3c-1.7,0-3.1,1.4-3.1,3c0,1.7,1.4,3,3.1,3C376.4,63.8,377.7,62.5,377.7,60.8
				 M376.5,60.8L376.5,60.8c0,1-0.8,1.8-1.8,1.8c-1,0-1.8-0.8-1.8-1.8c0-1,0.8-1.8,1.8-1.8C375.6,59,376.5,59.8,376.5,60.8"/>
		</g>
		<g class="st5">
			<path class="st19" d="M376.4,60.8c0-1-0.8-1.8-1.8-1.8c-1,0-1.8,0.8-1.8,1.8c0,1,0.8,1.8,1.8,1.8
				C375.6,62.6,376.4,61.8,376.4,60.8 M375.2,60.8L375.2,60.8c0,0.3-0.3,0.6-0.6,0.6c-0.3,0-0.6-0.3-0.6-0.6c0-0.3,0.3-0.6,0.6-0.6
				C375,60.2,375.2,60.4,375.2,60.8"/>
		</g>
		<g class="st5">
			<path class="st20" d="M375.3,60.8c0-0.3-0.3-0.6-0.6-0.6c-0.3,0-0.6,0.3-0.6,0.6c0,0.3,0.3,0.6,0.6,0.6
				C375,61.4,375.3,61.1,375.3,60.8"/>
		</g>
	</g>
	<g>
		<path class="st17" d="M383.2,96.3c-13.7,0-24.9-11.1-24.9-24.7c0-13.6,11.2-24.7,24.9-24.7c13.7,0,24.9,11.1,24.9,24.7
			C408.2,85.3,397,96.3,383.2,96.3z M383.2,49c-12.6,0-22.9,10.1-22.9,22.6s10.3,22.6,22.9,22.6c12.6,0,22.9-10.2,22.9-22.6
			S395.9,49,383.2,49z"/>
	</g>
	<g>
		<polygon class="st0" points="39.2,48.2 39.2,95.1 30.9,95.1 30.9,48.2 39.2,48.2 		"/>
		<path class="st0" d="M40,95.9h-9.8V47.5H40V95.9z M31.7,94.3h6.8V49h-6.8V94.3z"/>
	</g>
	<g>
		<path class="st0" d="M105.6,95.1h-8V67.4c0-0.2,0-1.8,0.1-4.7c0.1-2.9,0.1-5.3,0.1-7h-0.2L80.2,95.1H72L54.7,55.7h-0.1
			c0,1.7,0,4,0.1,6.9c0,2.9,0.1,4.5,0.1,4.7v27.7h-8V48.2h11.9l17.5,39.6h0.2l17.5-39.6h11.8V95.1L105.6,95.1z"/>
		<path class="st0" d="M106.3,95.9h-9.6V67.4c0-0.2,0-1.8,0.1-4.8c0-1.3,0.1-2.6,0.1-3.6L80.8,95.9h-9.2L55.3,59.2c0,1,0,2.2,0,3.5
			c0,2.9,0.1,4.5,0.1,4.7v28.5h-9.6V47.5h13.2l17.1,38.7l17.1-38.7h13.1V95.9z M98.3,94.3h6.5V49H94.3L76.8,88.6h-1.2L58.1,49H47.4
			v45.3h6.5v-27c0-0.2,0-1.8-0.1-4.7c0-2.9-0.1-5.2-0.1-6.9V55h1.4l17.3,39.4h7.2L97,55h1.5v0.8c0,1.7,0,4.1-0.1,7
			c-0.1,2.9-0.1,4.5-0.1,4.7V94.3z"/>
	</g>
	<g>
		<path class="st21" d="M147.6,81.5h-24.6l-6.5,13.6h-8.6l23.1-46.9h9.4l22.3,46.9h-9.1L147.6,81.5L147.6,81.5z M125.5,75.9h19.1
			l-9.1-20.6h-0.2L125.5,75.9L125.5,75.9z"/>
	</g>
	<g>
		<path class="st0" d="M164,95.9h-10.8l-6.1-13.6h-23.7L117,95.9h-10.3l23.9-48.4H141L164,95.9z M154.2,94.3h7.4L140,49h-8.5
			l-22.4,45.3h6.8l6.5-13.6h25.6L154.2,94.3z M145.8,76.6h-21.5l10.6-22.2h1.2L145.8,76.6z M126.7,75.1h16.7l-8-18.2L126.7,75.1z"/>
	</g>
	<g>
		<path class="st0" d="M192.9,75.5V70h27v25.1h-5.4l-2-6.1c-2.1,2.2-5,4-8.6,5.3c-3.6,1.3-7.5,2-11.7,2c-7.7,0-14-1.8-18.9-5.3
			c-4.1-3-6.9-6.5-8.4-10.6c-0.9-2.4-1.3-5.5-1.3-9.2c0-6.4,2.4-11.9,7.1-16.5c5.4-5.2,12.8-7.8,22.1-7.8c6.3,0,11.9,1.3,16.7,3.8
			c5.4,2.9,8.5,6.8,9.4,11.7h-8.1c-2.1-6.6-8.2-9.9-18.4-9.9c-5.8,0-10.5,1.6-14.2,4.9c-4,3.5-5.9,8.2-5.9,14.1
			c0,12.9,6.8,19.3,20.5,19.3c5.1,0,9.3-1,12.6-3c4.5-2.7,6.8-6.9,6.8-12.5H192.9L192.9,75.5z"/>
		<path class="st0" d="M192.2,97.1c-7.8,0-14.3-1.8-19.3-5.4c-4.2-3.1-7.1-6.8-8.6-10.9c-0.9-2.5-1.4-5.7-1.4-9.5
			c0-6.6,2.5-12.3,7.3-17c5.5-5.3,13.1-8.1,22.6-8.1c6.4,0,12.2,1.3,17,3.9c5.6,3,8.9,7.1,9.8,12.2l0.2,0.9h-9.6l-0.2-0.5
			c-2-6.3-7.8-9.3-17.7-9.3c-5.5,0-10.2,1.6-13.7,4.7c-3.8,3.3-5.7,7.9-5.7,13.5c0,12.5,6.5,18.6,19.7,18.6c4.9,0,9-1,12.2-2.9
			c4.1-2.5,6.2-6.1,6.4-11h-19.2v-7h28.5v26.6h-6.7l-1.8-5.4c-2.1,1.9-4.8,3.4-8,4.6C200.5,96.4,196.4,97.1,192.2,97.1z M192.8,47.8
			c-9.1,0-16.3,2.6-21.5,7.6c-4.5,4.4-6.8,9.7-6.8,15.9c0,3.6,0.4,6.6,1.3,8.9c1.4,3.9,4.2,7.3,8.1,10.2c4.7,3.4,10.9,5.1,18.4,5.1
			c4.1,0,7.9-0.7,11.4-1.9c3.5-1.3,6.3-3,8.3-5.1l0.9-0.9l2.2,6.8h4.1V70.8h-25.4v3.9h19.2v0.8c0,5.8-2.4,10.2-7.2,13.1
			c-3.4,2.1-7.8,3.1-13,3.1c-14.1,0-21.3-6.8-21.3-20.1c0-6.1,2.1-11.1,6.2-14.7c3.9-3.4,8.8-5.1,14.7-5.1c10.2,0,16.6,3.3,18.9,9.9
			h6.6c-1-4.2-4-7.7-8.8-10.2C204.4,49,198.9,47.8,192.8,47.8z"/>
	</g>
	<g>
		<polygon class="st0" points="271.6,89.5 271.6,95.1 226.2,95.1 226.2,48.2 271,48.2 271,53.9 234.5,53.9 234.5,68.2 268.1,68.2 
			268.1,73.8 234.5,73.8 234.5,89.5 271.6,89.5 		"/>
		<path class="st0" d="M272.3,95.9h-47V47.5h46.4v7.2h-36.5v12.8h33.7v7.2h-33.7v14.1h37.1V95.9z M226.9,94.3h43.9v-4.1h-37.1V73.1
			h33.7V69h-33.7V53.1h36.5V49h-43.3V94.3z"/>
	</g>
	<g>
		<polygon class="st0" points="315.3,86.1 315.3,48.2 323.4,48.2 323.4,95.1 314,95.1 282.8,57.2 282.6,57.2 282.6,95.1 274.5,95.1 
			274.5,48.2 284.4,48.2 315.1,86.1 315.3,86.1 		"/>
		<path class="st0" d="M324.2,95.9h-10.5l-30.3-36.7v36.7h-9.6V47.5h11l29.8,36.7V47.5h9.6V95.9z M314.4,94.3h8.2V49h-6.5v37.9h-1.3
			L284,49h-8.7v45.3h6.5V56.5h1.3L314.4,94.3z"/>
	</g>
	<g>
		<path class="st0" d="M472.9,75.5V70h27v25.1h-5.4l-2-6.1c-2.1,2.2-5,4-8.6,5.3c-3.6,1.3-7.5,2-11.7,2c-7.7,0-14-1.8-18.9-5.3
			c-4.1-3-6.9-6.5-8.4-10.6c-0.9-2.4-1.3-5.5-1.3-9.2c0-6.4,2.4-11.9,7.1-16.5c5.4-5.2,12.8-7.8,22.1-7.8c6.3,0,11.9,1.3,16.7,3.8
			c5.4,2.9,8.5,6.8,9.4,11.7h-8.1c-2.1-6.6-8.2-9.9-18.4-9.9c-5.8,0-10.5,1.6-14.2,4.9c-4,3.5-5.9,8.2-5.9,14.1
			c0,12.9,6.8,19.3,20.5,19.3c5.1,0,9.3-1,12.6-3c4.5-2.7,6.8-6.9,6.8-12.5H472.9L472.9,75.5z"/>
		<path class="st0" d="M472.1,97.1c-7.8,0-14.3-1.8-19.3-5.4c-4.2-3.1-7.1-6.8-8.6-10.9c-0.9-2.5-1.4-5.7-1.4-9.5
			c0-6.6,2.4-12.3,7.3-17c5.5-5.3,13.1-8.1,22.6-8.1c6.4,0,12.2,1.3,17,3.9c5.6,3,8.9,7.1,9.8,12.2l0.2,0.9h-9.6l-0.2-0.5
			c-2-6.3-7.8-9.3-17.7-9.3c-5.5,0-10.2,1.6-13.7,4.7c-3.8,3.3-5.7,7.9-5.7,13.5c0,12.5,6.5,18.6,19.7,18.6c4.9,0,9-1,12.2-2.9
			c4.1-2.5,6.2-6.1,6.4-11h-19.2v-7h28.5v26.6h-6.7l-1.8-5.4c-2.1,1.9-4.8,3.4-8,4.6C480.4,96.4,476.4,97.1,472.1,97.1z M472.7,47.8
			c-9.1,0-16.3,2.6-21.5,7.6c-4.5,4.4-6.8,9.7-6.8,15.9c0,3.6,0.4,6.6,1.3,8.9c1.4,3.9,4.2,7.3,8.1,10.2c4.7,3.4,10.9,5.1,18.4,5.1
			c4.1,0,7.9-0.7,11.4-1.9c3.5-1.3,6.3-3,8.3-5.1l0.9-0.9l2.2,6.8h4.1V70.8h-25.4v3.9h19.2v0.8c0,5.8-2.4,10.2-7.2,13.1
			c-3.4,2.1-7.8,3.1-13,3.1c-14.1,0-21.3-6.8-21.3-20.1c0-6.1,2.1-11.1,6.2-14.7c3.9-3.4,8.8-5.1,14.7-5.1c10.2,0,16.6,3.3,18.9,9.9
			h6.6c-1-4.2-4-7.7-8.8-10.2C484.4,49,478.9,47.8,472.7,47.8z"/>
	</g>
	<g>
		<polygon class="st0" points="513.6,48.2 513.6,89.5 544.7,89.5 544.7,95.1 505.3,95.1 505.3,48.2 513.6,48.2 		"/>
		<path class="st0" d="M545.5,95.9h-41V47.5h9.9v41.3h31.2V95.9z M506,94.3H544v-4.1h-31.2V49H506V94.3z"/>
	</g>
	<g>
		<polygon class="st0" points="726.3,48.2 726.3,89.5 757.5,89.5 757.5,95.1 718,95.1 718,48.2 726.3,48.2 		"/>
		<path class="st0" d="M758.3,95.9h-41V47.5h9.8v41.3h31.2V95.9z M718.8,94.3h37.9v-4.1h-31.2V49h-6.8V94.3z"/>
	</g>
	<g>
		<path class="st21" d="M596.5,71.7c0-5.6-1.9-10.2-5.8-13.7c-3.9-3.5-9.1-5.3-15.6-5.3c-6.6,0-11.8,1.8-15.7,5.3
			c-3.8,3.5-5.8,8.1-5.8,13.7c0,5.6,1.9,10.2,5.7,13.6c3.9,3.6,9.2,5.4,15.8,5.4c6.5,0,11.8-1.8,15.7-5.4
			C594.6,81.8,596.5,77.3,596.5,71.7L596.5,71.7z M605.1,71.7c0,6.2-2.1,11.6-6.4,16.1c-5.4,5.7-13.2,8.5-23.6,8.5
			c-10.4,0-18.2-2.9-23.6-8.5c-4.3-4.5-6.4-9.9-6.4-16.1c0-6.2,2.1-11.6,6.4-16.1c5.4-5.7,13.2-8.6,23.6-8.6
			c10.4,0,18.2,2.8,23.6,8.6C602.9,60.1,605.1,65.5,605.1,71.7L605.1,71.7z"/>
	</g>
	<g>
		<path class="st0" d="M575.1,97.1c-10.5,0-18.7-3-24.2-8.8c-4.4-4.7-6.6-10.3-6.6-16.7c0-6.4,2.2-12,6.6-16.7
			c5.5-5.8,13.6-8.8,24.2-8.8c10.5,0,18.7,3,24.2,8.8c4.4,4.7,6.6,10.3,6.6,16.7c0,6.4-2.2,12-6.6,16.7
			C593.8,94.2,585.6,97.1,575.1,97.1z M575.1,47.8c-10.1,0-17.9,2.8-23,8.3c-4.1,4.4-6.2,9.6-6.2,15.6c0,6,2.1,11.2,6.2,15.6
			c5.2,5.5,12.9,8.3,23,8.3c10.1,0,17.9-2.8,23-8.3c4.1-4.4,6.2-9.6,6.2-15.6c0-6-2.1-11.2-6.2-15.6
			C592.9,50.6,585.2,47.8,575.1,47.8z M575.1,91.5c-6.8,0-12.2-1.9-16.3-5.6c-3.9-3.6-5.9-8.4-5.9-14.2c0-5.8,2-10.6,6-14.3
			c4-3.7,9.4-5.5,16.2-5.5c6.7,0,12.1,1.9,16.1,5.5c4,3.7,6,8.5,6,14.3c0,5.8-2,10.6-6,14.2C587.3,89.6,581.8,91.5,575.1,91.5z
			 M575.1,53.4c-6.4,0-11.5,1.7-15.1,5.1c-3.7,3.4-5.5,7.8-5.5,13.2c0,5.4,1.8,9.8,5.4,13.1c3.7,3.5,8.9,5.2,15.2,5.2
			c6.3,0,11.4-1.8,15.2-5.2c3.6-3.3,5.5-7.7,5.5-13.1c0-5.4-1.9-9.8-5.5-13.2C586.5,55.1,581.4,53.4,575.1,53.4z"/>
	</g>
	<g>
		<path class="st21" d="M618.4,53.7v14.4h15c8.6,0,12.9-2.5,12.9-7.6c0-4.6-4.3-6.9-12.8-6.9H618.4L618.4,53.7z M610.1,95.1V48.2
			h27.1c5.5,0,9.8,1.2,13,3.5c2.9,2.1,4.4,4.9,4.4,8.3c0,4.6-2.7,7.8-8.2,9.8c3.2,1,5.6,2,7.1,3.1c2.7,2,4,4.8,4,8.3
			c0,4-1.8,7.2-5.3,9.7c-3.8,2.7-9,4.1-15.6,4.1H610.1L610.1,95.1z M618.4,73.2v16.5h17.7c4.3,0,7.5-0.8,9.7-2.3
			c2.2-1.5,3.3-3.6,3.3-6.3c0-5.3-4.8-7.9-14.4-7.9H618.4L618.4,73.2z"/>
	</g>
	<g>
		<path class="st0" d="M636.6,95.9h-27.3V47.5h27.9c5.6,0,10.2,1.2,13.4,3.7c3.1,2.3,4.7,5.3,4.7,8.9c0,4.3-2.3,7.6-6.8,9.7
			c2.3,0.8,4.1,1.7,5.4,2.6c2.9,2.2,4.4,5.2,4.4,8.9c0,4.2-1.9,7.7-5.7,10.4C648.7,94.5,643.3,95.9,636.6,95.9z M610.9,94.3h25.7
			c6.4,0,11.4-1.3,15.1-4c3.4-2.4,5-5.4,5-9.1c0-3.3-1.2-5.8-3.7-7.7c-1.4-1-3.8-2-6.9-3l-2.2-0.7l2.2-0.8c5.2-1.9,7.7-4.8,7.7-9.1
			c0-3.2-1.3-5.7-4.1-7.7c-3-2.2-7.2-3.4-12.5-3.4h-26.3V94.3z M636.1,90.5h-18.5v-18h17.2c10,0,15.1,2.9,15.1,8.7
			c0,2.9-1.2,5.2-3.7,6.9C644,89.6,640.5,90.5,636.1,90.5z M619.2,88.9h17c4.1,0,7.2-0.7,9.3-2.2c2-1.4,3-3.2,3-5.6
			c0-4.8-4.4-7.1-13.6-7.1h-15.6V88.9z M633.4,68.9h-15.8v-16h15.9c9,0,13.6,2.6,13.6,7.6C647.1,66,642.5,68.9,633.4,68.9z
			 M619.2,67.3h14.3c8.1,0,12.1-2.2,12.1-6.8c0-4.1-3.9-6.1-12-6.1h-14.3V67.3z"/>
	</g>
	<g>
		<path class="st21" d="M698.1,81.5h-24.7l-6.5,13.6h-8.6l23.1-46.9h9.4l22.3,46.9h-9.1L698.1,81.5L698.1,81.5z M676,75.9h19.1
			L686,55.2h-0.2L676,75.9L676,75.9z"/>
	</g>
	<g>
		<path class="st0" d="M714.4,95.9h-10.8l-6.1-13.6h-23.7l-6.5,13.6h-10.3L681,47.5h10.4L714.4,95.9z M704.6,94.3h7.4L690.4,49H682
			l-22.4,45.3h6.8l6.5-13.6h25.6L704.6,94.3z M696.3,76.6h-21.5l10.6-22.2h1.2L696.3,76.6z M677.2,75.1h16.7l-8-18.2L677.2,75.1z"/>
	</g>
	<g>
		<path class="st21" d="M339.9,71.3c0,11.7,4.2,21.6,12.5,29.8c8.3,8.2,18.5,12.3,30.4,12.4c11.9,0,22.2-4.1,30.7-12.3
			c8.5-8.2,12.8-18.1,12.8-29.8c0-11.7-4.2-21.7-12.5-30c-8.3-8.3-18.5-12.5-30.5-12.5l1.7,3.9l-8.7-5.9l9.4-5.4l-2,3.7
			c12.6,0.2,23.5,4.8,32.4,13.7c9,8.9,13.5,19.6,13.5,32.1c0,6.3-1.2,12.2-3.7,17.8c-2.5,5.6-5.8,10.4-10,14.6
			c-4.2,4.2-9.2,7.4-14.8,9.8c-5.7,2.4-11.7,3.6-18.1,3.6c-6.4,0-12.4-1.2-18-3.6c-5.6-2.4-10.6-5.6-14.8-9.8
			c-4.2-4.1-7.6-8.9-10.1-14.4c-2.5-5.5-3.7-11.4-3.8-17.6c0,0,0.6,0,1.8,0C339.3,71.3,339.9,71.3,339.9,71.3L339.9,71.3z"/>
		<path class="st0" d="M382.9,117.4L382.9,117.4c-6.5,0-12.6-1.2-18.4-3.7c-5.7-2.4-10.8-5.8-15-9.9c-4.3-4.2-7.7-9.1-10.2-14.6
			c-2.5-5.6-3.8-11.6-3.9-17.9l0-0.8h2.6c0.9,0,1.3,0,1.6,0l1.1-1v1.8c0,11.4,4.1,21.2,12.3,29.3c8.2,8,18.2,12.1,29.9,12.1
			c11.7,0,21.8-4.1,30.1-12.1c8.3-8,12.5-17.9,12.5-29.2c0-11.4-4.2-21.3-12.3-29.5c-7.9-7.9-17.5-12-28.8-12.3l2.3,5.2l-11.9-8.1
			l12.8-7.3l-2.7,5c12.3,0.5,22.9,5.2,31.7,13.9c9.1,9,13.7,20,13.7,32.6c0,6.4-1.2,12.4-3.7,18.1c-2.5,5.6-5.9,10.6-10.2,14.8
			c-4.3,4.2-9.4,7.6-15.1,10C395.6,116.2,389.4,117.4,382.9,117.4z M337,72.1c0.2,5.8,1.4,11.3,3.7,16.5c2.4,5.4,5.7,10.2,9.9,14.2
			c4.1,4,9,7.3,14.6,9.6c5.5,2.3,11.5,3.5,17.8,3.5c6.3,0,12.3-1.2,17.8-3.5c5.5-2.3,10.5-5.6,14.6-9.7c4.2-4.1,7.5-8.9,9.9-14.3
			c2.4-5.4,3.6-11.3,3.6-17.5c0-12.2-4.5-22.8-13.2-31.5c-8.8-8.7-19.5-13.3-31.9-13.5l-1.3,0l1.3-2.5l-6,3.4l5.5,3.7l-1.1-2.6h1.2
			c12.1,0,22.6,4.3,31,12.7c8.4,8.5,12.7,18.7,12.8,30.6c0,11.8-4.4,22-13,30.4c-8.6,8.3-19.1,12.5-31.2,12.5
			c-12.1,0-22.5-4.3-31-12.6c-8.3-8.1-12.6-18.1-12.7-29.6c-0.3,0-0.6,0-1.1,0H337z"/>
	</g>
	<g>
		<path class="st21" d="M383.3,102.4c0,0-0.1,0.4,0,1.3c0,0.9,0,1.3,0,1.3c-4.6-0.1-9-1-13.1-2.7c-4.1-1.8-7.7-4.2-10.8-7.2
			c-3.1-3-5.5-6.6-7.3-10.6c-1.8-4-2.7-8.4-2.7-12.9c0-4.6,0.9-8.9,2.7-13c1.8-4.1,4.2-7.6,7.3-10.7c3.1-3,6.7-5.4,10.9-7.2
			c4.1-1.8,8.6-2.6,13.3-2.6c9.3,0,17.3,3.2,23.9,9.7c6.7,6.4,10.1,14.2,10.2,23.3l2.8-1.4l-4,6.8l-4.4-6.2l2.9,1.2
			c0-8.6-3.1-15.9-9.2-21.9c-6.1-6-13.6-9-22.3-9c-8.7,0-16.2,3-22.5,9.1c-6.3,6-9.4,13.4-9.4,21.9c0,8.6,3.1,15.8,9.3,21.9
			C367.1,99.3,374.5,102.4,383.3,102.4L383.3,102.4z"/>
		<path class="st0" d="M384,105.8l-0.8,0c-4.7-0.1-9.2-1-13.4-2.8c-4.2-1.8-7.9-4.3-11-7.4c-3.1-3.1-5.6-6.7-7.5-10.8
			c-1.8-4.1-2.7-8.6-2.7-13.2c0-4.7,0.9-9.2,2.8-13.3c1.8-4.1,4.3-7.8,7.5-10.9c3.1-3.1,6.9-5.6,11.1-7.4c4.2-1.8,8.7-2.7,13.5-2.7
			h0.1c9.4,0,17.7,3.3,24.5,9.9c6.5,6.3,10,13.9,10.4,22.6l4.1-2.1l-6,10.1l-6.7-9.4l4.3,1.8c-0.3-7.9-3.3-14.6-8.9-20.2
			c-6-5.8-13.3-8.8-21.7-8.8c-8.4,0-15.8,3-21.9,8.9c-6.1,5.9-9.2,13.1-9.2,21.4c0,8.3,3.1,15.5,9.1,21.3c6,5.9,13.3,8.8,21.8,8.9
			l0.3,0l-0.1,0.7l0,0l0.6,0.1c0,0,0,0.2,0,1.1L384,105.8z M383.4,38.8c-4.5,0-8.9,0.9-12.9,2.6c-4,1.7-7.6,4.1-10.6,7
			c-3,3-5.4,6.5-7.2,10.4c-1.7,4-2.6,8.2-2.6,12.7c0,4.4,0.9,8.7,2.6,12.6c1.7,3.9,4.1,7.4,7.1,10.4c3,2.9,6.5,5.3,10.5,7.1
			c3.8,1.6,7.8,2.5,12,2.7l0-0.5c0-0.2,0-0.4,0-0.6c-8.5-0.2-16-3.3-22.1-9.3c-6.3-6.2-9.5-13.7-9.5-22.4c0-8.7,3.3-16.3,9.7-22.5
			c6.4-6.2,14.1-9.3,23-9.3c8.9,0,16.5,3.1,22.8,9.2c6.3,6.1,9.4,13.7,9.4,22.4v1.2l-1.5-0.6l2.2,3.1l2-3.4l-1.5,0.8l0-1.2
			c-0.2-8.8-3.5-16.5-10-22.8c-6.5-6.3-14.4-9.4-23.4-9.4H383.4z"/>
	</g>
</g>
<g>
	<circle class="st22" cx="756.3" cy="56.8" r="11"/>
	<g>
		<path class="st0" d="M751.1,50.5h5.7c0.9,0,1.7,0.1,2.3,0.4c1.2,0.5,1.7,1.5,1.7,3c0,0.8-0.2,1.4-0.5,1.9
			c-0.3,0.5-0.7,0.9-1.3,1.2c0.5,0.2,0.9,0.5,1.1,0.8c0.2,0.3,0.4,0.9,0.4,1.6l0.1,1.7c0,0.5,0.1,0.8,0.1,1.1
			c0.1,0.4,0.3,0.7,0.5,0.8v0.3h-2.1c-0.1-0.1-0.1-0.2-0.1-0.4c0-0.2-0.1-0.5-0.1-1l-0.1-2.1c0-0.8-0.3-1.4-0.9-1.7
			c-0.3-0.2-0.8-0.2-1.5-0.2h-3.8v5.4h-1.7V50.5z M756.7,56.3c0.8,0,1.4-0.2,1.9-0.5c0.5-0.3,0.7-0.9,0.7-1.7c0-0.9-0.3-1.5-1-1.8
			c-0.3-0.2-0.8-0.3-1.4-0.3h-4.1v4.3H756.7z"/>
	</g>
</g>
</svg>
